<?xml version="1.0" encoding="UTF-8"?> <svg xmlns="http://www.w3.org/2000/svg" height="512" viewBox="0 0 512 512" width="512"><path d="m193.130154 177.440077c-4.935781.352062-12.515732 1.584279-13.749677 2.244396-.396625.220038-1.057668.396069-1.454293.396069s-2.644169.924163-4.979851 2.068365c-3.701836 1.804317-4.847643 2.684472-8.46134 6.293108-6.830769 6.821201-10.047841 13.68641-11.369925 24.336286-.572904 4.840852-.616973 6.293108-.132209 10.341821.969529 8.00941 2.820447 13.598394 6.434144 19.231386 4.142531 6.46914 11.546204 12.278163 18.729529 14.742597 8.725756 2.948519 10.797022 3.168558 34.770818 3.388596 11.942829.088016 22.211018.088016 22.783921-.044007.572903-.176031 1.057667-.572101 1.057667-.924163 0-.968171-1.454292-1.540271-4.054392-1.540271-3.040794-.044008-5.552754-1.452256-6.74263-3.784667-.83732-1.672294-.881389-2.596457-.881389-35.602269 0-33.093828 0-33.929976.881389-35.382231 1.322084-2.288403 2.732308-3.036535 6.74263-3.740659 4.010323-.660116 4.495087-.880155 3.657767-1.716302-.616973-.616109-35.123375-.880155-43.232159-.308055zm13.925956 5.016884c2.203474.308054 4.406948.836147 4.935781 1.100194l.969529.528093-.088139 34.854138-.132209 34.854137-1.322084.616109c-1.145806.572101-2.996724.836147-10.312258 1.672294-4.627295.484086-12.824218-1.584279-17.71593-4.48879-3.39335-2.024357-8.064715-6.337116-10.047842-9.241628-1.410223-2.112372-3.657766-6.733185-4.583225-9.461666-1.233946-3.696651-1.850919-8.581511-1.850919-14.522557.04407-7.481318 1.057668-12.32217 3.922184-18.923333 1.67464-3.828674 7.535881-10.341821 11.502134-12.850263 6.478213-4.048713 15.424318-5.544976 24.722978-4.136728zm37.326848-5.016884c-1.939057.79214-.925459 1.848326 2.291613 2.420427 3.701836.704124 5.156129 2.596457 8.152854 10.781898 1.013598 2.772489 2.071265 5.765016 2.423821 6.601163.925459 2.552449 1.806849 4.972876 2.379752 6.601162.308486.836148 1.366154 3.696651 2.335682 6.381124.969529 2.640465 2.027196 5.632992 2.335683 6.601163.308486.96817 1.498362 4.312759 2.644168 7.481317 1.101737 3.12455 4.010323 11.353999 6.434144 18.263216 2.423822 6.909217 4.671365 13.246333 4.979851 14.08248.352556.836147.88139 2.200388 1.189876 2.992527.616973 1.716302 1.542432 2.728481 2.379752 2.728481.661042 0 2.423822-3.52062 2.423822-4.796845 0-.39607.264416-1.100194.616972-1.584279.308487-.484085.705112-1.36424.83732-1.980349.264417-1.408248 1.189876-3.91669 1.762779-5.060891.264417-.484085.616973-1.452256.793251-2.200388.176278-.704124 1.057668-3.300581 1.939057-5.721007.88139-2.420426 1.762779-4.88486 1.983127-5.500969.220347-.616108 1.67464-4.88486 3.305211-9.461666 1.63057-4.620814 3.437419-9.901744 4.098461-11.794077 1.67464-4.88486 2.159405-4.664821 4.583226 2.420426 1.101737 3.212566 2.644169 7.525326 3.39335 9.59369.79325 2.068364 1.894987 5.104899 2.467891 6.821201.572903 1.672294 1.454292 4.180736 1.983126 5.500969.528834 1.320232 1.410223 3.784666 1.983127 5.500968.616972 1.672295 1.366154 3.872682 1.718709 4.840853 2.864517 7.789372 3.922184 10.693883 4.098462 11.574038.572903 2.420426 3.261141 2.112372 4.054392-.484085.220347-.748132 2.335682-6.953225 4.671365-13.730418 2.335682-6.777194 5.02392-14.610573 5.949379-17.383061.969529-2.772488 2.423822-7.04124 3.305211-9.461666.83732-2.420427 2.335683-6.689178 3.305211-9.461667.969529-2.772488 3.040794-8.757542 4.583226-13.334348 1.586501-4.532798 3.34928-9.329643 3.922184-10.605868 1.542431-3.300581 3.922183-5.544976 6.918908-6.425131 2.600099-.748132 3.437419-1.892333 1.67464-2.376419-1.322084-.352061-21.417767-.352061-22.739851 0-1.894988.528093-.925459 1.672295 1.894987 2.288403 3.43742.748132 4.583226 1.408248 5.684963 3.300582.925459 1.540271.925459 1.584279.088139 4.796844-.83732 3.344589-2.379752 8.053419-5.773102 17.735124-1.939057 5.456961-4.803573 13.774425-9.386799 27.284804-2.820446 8.273457-2.996724 8.22945-6.037518-.440077-1.233946-3.652643-2.732308-7.789372-3.261142-9.241627-.528833-1.452256-1.454292-4.048713-2.027196-5.721008-.572903-1.716302-1.454292-4.180736-1.983126-5.500969-.528834-1.320232-1.145807-3.036534-1.322084-3.740658-.396626-1.320233-.837321-2.596458-2.644169-7.261279-.528834-1.320233-1.101737-3.036535-1.322085-3.740659-.176277-.748132-.528833-1.804318-.749181-2.420426-1.454293-3.564628-2.071265-6.293108-2.071265-9.109604-.04407-2.684473.088139-3.300582.969528-4.224744 1.013598-1.100194 3.878114-2.068365 5.993449-2.068365 1.322085 0 1.850919-.704124 1.145807-1.540271-.484764-.572101-2.952655-.660116-15.424318-.660116-8.196923 0-15.20397.132023-15.600595.264046-.396626.132024-.705112.528093-.705112.880155 0 .704124 1.057668 1.276225 3.084864 1.672295 2.247543.440077 4.847642 2.420426 6.213796 4.752837.705112 1.188209 2.467891 5.412953 3.922184 9.417658l2.644169 7.349295-1.498363 4.444782c-.881389 2.420427-2.776377 7.921395-4.23067 12.146139-1.498362 4.224744-2.996724 8.493496-3.305211 9.461667-1.939057 5.721007-4.274739 11.9261-4.627295 12.278162-.440695.440077-.616973.044007-2.688238-5.677-.661042-1.936341-1.850918-5.192914-2.644169-7.261279-.749181-2.068364-1.939057-5.412953-2.600099-7.481317-.705112-2.068364-2.379752-6.909217-3.789975-10.781899-7.139256-20.199557-7.976576-23.192084-7.227395-25.480487.661042-1.980349 1.278015-2.464434 4.539157-3.344589 2.908585-.79214 3.789975-1.892333 1.983126-2.376419-1.586501-.396069-27.323077-.264046-28.424814.176031zm-89.901737 110.327429c-1.189875.79214-1.366153 2.816496-.308486 3.828674.925459.924163 2.51196.880155 3.39335-.088015 1.983127-2.200388-.705112-5.412953-3.084864-3.740659zm38.208239.880155-3.305211 1.540271 1.233945.572101c.705112.264047 1.454293.79214 1.67464 1.144202.220348.352062.396626 7.173263.396626 15.182673 0 13.994465-.04407 14.610573-.88139 15.358705-1.762779 1.584279-1.145806 1.980349 3.084864 1.980349 4.1866 0 4.671364-.264047 3.217071-1.892333-.705111-.748132-.79325-2.464434-1.013598-18.043178-.132208-10.869914-.396625-17.20703-.661042-17.295046-.220347-.044007-1.939057.572101-3.745905 1.452256zm113.787394-.088015c-3.040794 1.408248-3.789975 2.420426-1.850918 2.420426.484764 0 1.057667.39607 1.322084.836147.264417.572101.440695 6.161085.440695 15.138666 0 13.598395-.04407 14.302519-.88139 15.402713-1.498362 1.848325-1.189876 2.068364 3.084864 2.068364 4.23067 0 4.847643-.39607 3.084863-1.980349-.83732-.748132-.881389-1.452256-.969528-17.955162-.088139-11.001937-.308487-17.20703-.572903-17.295046-.220348-.044007-1.894988.572101-3.657767 1.364241zm15.909082-.704124c-1.939057 1.628286-.793251 4.444782 1.762779 4.444782 2.115335 0 2.908585-3.344589 1.101737-4.576806-1.233946-.880155-1.67464-.880155-2.864516.132024zm-30.540149.484085c-1.101737.484085-2.335682.96817-2.776377 1.144201-1.013598.39607-.705112 1.232217.528833 1.408248.572904.088016 1.145807.616109 1.410224 1.276225.264417.704124.396625 6.777194.308486 15.358705-.132208 14.038472-.132208 14.214503-1.145806 15.226681-.528834.616109-.83732 1.232217-.661042 1.364241.440694.484085 7.976575.352062 8.285062-.088016.132208-.220039-.220348-.748132-.749182-1.144201l-1.013598-.660117-.220347-17.295045c-.220347-16.854969-.220347-17.251038-1.101737-17.339054-.484764-.044008-1.762779.264047-2.864516.748132zm-229.8223321.836147c-.1322084.264047.3084863.924163.9695285 1.540271l1.2339454 1.144202.1322085 14.47855.1322084 14.478549-1.4102233 1.584279c-1.101737 1.276225-1.2339454 1.628287-.7051117 1.848326.3966253.132023 4.9357817.176031 10.0919107.088015 10.2681885-.220038 11.5902729-.484085 15.3361786-3.080542 2.8645161-1.980349 4.7595037-4.356767 6.1256576-7.525325 1.5865012-3.784667 1.6305707-10.209798.0881389-14.08248-1.5424317-3.872682-4.142531-6.777194-7.5358809-8.493496-2.5119603-1.276225-3.5255583-1.496264-8.5054094-1.892333-6.9629776-.616109-15.6005955-.616109-15.9531513-.088016zm19.3024317 3.300581c2.8204467 1.364241 4.6272953 3.256574 6.346005 6.557155 1.0576675 2.112372 1.1898759 2.728481 1.1898759 7.569333.0440695 5.148907 0 5.412953-1.4102233 8.229449-2.6882382 5.500969-7.2273946 8.053419-13.4852605 7.745364-2.7323077-.176031-3.6136973-.396069-4.0543921-1.012178-.8373201-1.144201-.8813896-28.296983-.0440695-29.353169s1.5865013-1.232217 5.4205459-1.100194c2.8204467.132023 4.0984615.39607 6.0375186 1.36424zm136.0424814-3.080542c0 .352062.396625.924163.83732 1.232217.969528.704124 2.115335 3.036535 4.010322 8.493496.749182 2.156379 1.630571 4.664821 1.939057 5.500968.308487.836148.837321 2.244396 1.101737 3.080543.88139 2.464434 2.55603 7.04124 3.569628 9.681705.528834 1.320232 1.057668 2.816496 1.189876 3.300581.132209.484085.616973 1.76031 1.057668 2.772488.749181 1.584279.969528 1.848326 1.498362 1.408248.352556-.308054.925459-1.452255 1.278015-2.596457 1.762779-5.677 6.081588-17.427069 6.522283-17.735123.749181-.440078 1.145806-.044008 1.63057 1.540271.220348.79214 1.410224 4.268752 2.688239 7.789372 1.233945 3.52062 2.556029 7.261279 2.908585 8.361472.396625 1.100194.969529 2.244396 1.278015 2.596458.484764.484085.661042.440077 1.145807-.440078.572903-1.100194 3.261141-8.40548 3.922183-10.737891.176278-.748132.793251-2.420426 1.322084-3.740659.484765-1.320232 1.674641-4.708829 2.644169-7.481317 3.349281-9.813728 3.525559-10.253806 5.156129-11.794077.572903-.528093.925459-1.188209.793251-1.408248-.352556-.528093-6.698561-.572101-7.007047-.044008-.132209.176031.264417.836147.83732 1.36424.616973.572101 1.101737 1.320233 1.101737 1.716303 0 .660116-.705112 2.992527-1.454293 4.88486-.220347.616108-.572903 1.672294-.749181 2.420426-.220348.704124-.793251 2.420426-1.322085 3.740659-.528833 1.320232-1.101736 2.992527-1.322084 3.740659-.308486 1.188209-.925459 2.860503-2.600099 6.997232-.616973 1.584279-1.013598 1.232217-2.159405-2.15638-.528833-1.452256-1.850918-5.236922-2.996724-8.361472-3.613697-10.209798-3.834045-11.398008-2.159405-12.982287.616973-.5721 1.101737-1.188209 1.101737-1.408248 0-.176031-2.556029-.352062-5.729032-.352062-3.128933 0-5.729032.132024-5.729032.264047s.83732 1.100194 1.894987 2.068364c1.366154 1.408248 2.115335 2.640465 2.864517 4.972876 1.145806 3.432604 1.189876 3.256573-1.013598 9.417658-2.423822 6.953225-3.39335 9.285636-3.834045 9.153612-.396625-.132023-2.467891-5.060891-3.39335-8.053418-.220347-.748132-1.145806-3.300581-2.027196-5.721007-2.952655-8.185442-3.084863-8.757543-2.159404-10.077775.484764-.616109 1.101737-1.144202 1.410223-1.144202.264417 0 .528834-.176031.528834-.352062 0-.220038-2.379752-.440077-5.288338-.484085-4.451017-.088015-5.288337 0-5.288337.572101zm173.193051 6.029062c-.572903 1.232217-1.983126 3.036534-3.084863 4.004705-1.850918 1.672294-1.939057 1.804318-1.145807 2.288403 2.511961 1.452256 2.467891 1.320232 2.467891 11.309992v9.285635l1.366154 1.276225c2.379752 2.200387 5.420546 1.628286 7.57995-1.408248 1.410224-1.936341 1.410224-1.980349-.528833-1.012179-1.806849.880155-3.481489.484086-4.010323-.96817-.572903-1.408248-.572903-16.458899-.044069-17.295046.264417-.39607 1.233945-.704124 2.335682-.748132 1.057668-.044007 2.027196-.088015 2.247543-.132023.176278-.044008.308487-.440077.308487-.924163 0-.792139-.308487-.880155-2.379752-.880155-2.776377 0-2.908586-.176031-2.908586-4.224744 0-3.476612-.661042-3.652643-2.203474-.5721zm-285.041389 4.796844c-4.274739 1.012179-7.0951856 6.909217-3.701836 7.789372 1.67464.39607 2.467891-.39607 2.820447-2.72848.396625-2.816496 1.586501-3.960698 3.922184-3.91669 2.335682.088015 3.789975 1.716302 4.010322 4.576806.176278 2.024356-.705112 3.52062-2.027196 3.52062-.352556 0-1.189876.264046-1.894988.616108-.661042.352062-2.203473 1.100194-3.393349 1.672295-5.11206 2.464434-7.051117 6.073069-5.244268 9.901744 1.762779 3.740658 7.183325 4.312759 10.576675 1.056186 1.322084-1.232217 1.67464-1.18821 2.732307.616108 1.189876 2.068364 3.084864 2.112372 5.464616.176031 1.894987-1.584279 2.115335-2.332411.484764-2.024356-1.71871.308054-2.071266-1.144202-2.335683-10.341822-.264416-7.833379-.308486-8.273457-1.278014-9.285635-1.674641-1.804318-6.301936-2.552449-10.135981-1.628287zm7.315534 14.302519c.132208 4.180736-.396625 5.412953-2.688238 6.557155-2.511961 1.188209-3.789975 1.056186-5.288338-.616109-1.101737-1.232217-1.233945-1.716302-1.057667-3.256573.264417-2.024357 2.291613-4.092721 5.376476-5.544977 3.128933-1.452255 3.525559-1.188209 3.657767 2.860504zm14.41072-13.994464c-.969529.352062-2.203474.748131-2.776378.880155-1.542431.352062-1.586501.924162-.132208 2.288403l1.366154 1.276224v8.405481c0 7.877387-.04407 8.449488-.88139 9.153612-1.762779 1.496263-1.145806 1.892333 2.996725 1.892333 2.159404 0 4.054392-.132023 4.1866-.264047.176278-.176031-.220347-.880155-.79325-1.584279-1.057668-1.276224-1.101737-1.496263-1.101737-8.317464 0-8.273457.264417-9.153612 3.34928-10.517853 2.644169-1.144201 3.878114-1.100193 5.023921.088016 1.542431 1.628287 1.850918 3.696651 1.67464 10.95793-.088139 5.809023-.264417 7.04124-.88139 7.745364-1.454293 1.584279-1.013598 1.892333 2.864516 1.892333 2.027196 0 3.789976-.132023 3.966253-.264047.132209-.176031-.176277-.880155-.705111-1.584279-.88139-1.188209-.969529-1.936341-1.189876-9.945751-.220348-9.065597-.440695-9.989759-2.379752-11.618046-2.203474-1.804318-6.125658-1.408248-8.813896.96817-1.850918 1.672295-2.423821 1.672295-2.732307 0-.396626-1.936341-1.013598-2.200387-3.040794-1.452255zm26.662034.352062c-1.542432.5721-2.908585 1.188209-2.952655 1.408248-.088139.220038.440695.836147 1.189876 1.36424l1.322084 1.012178v8.713535c0 8.493495-.044069 8.757542-.969528 9.37365-1.67464 1.100194-.572903 1.672295 3.34928 1.672295 1.983127 0 3.789975-.132023 3.922184-.308054.176278-.132024-.132209-.748132-.661042-1.364241-.969529-1.012178-1.013598-1.320232-1.145807-11.750069-.088139-7.833379-.264417-10.737891-.661042-10.913922-.308486-.088015-1.806849.264047-3.39335.79214zm19.346501-.704124c-2.908585.616108-5.552754 2.992527-7.051116 6.425131-1.366154 3.036535-1.366154 9.241628 0 12.190147 3.217072 7.04124 11.502134 8.669527 16.305707 3.212566 1.67464-1.892334 2.864516-4.444783 2.423821-5.104899-.176278-.264047-.83732.220038-1.586501 1.100193-1.71871 2.068365-3.34928 2.904512-5.861241 2.904512-4.318809 0-7.976575-3.91669-8.240992-8.889566l-.132209-2.33241 8.152854-.220039 8.152854-.220039-.132209-1.496263c-.176278-2.244396-1.806848-4.884861-3.922183-6.381124-2.027197-1.408248-5.023921-1.848326-8.108785-1.188209zm3.569628 2.024356c2.908586 1.496264 4.054392 4.708829 1.939057 5.500969-1.233945.484085-7.62402.616108-8.725757.176031-1.322084-.528093-.83732-2.596457 1.101737-4.532798 2.027196-1.980349 3.481489-2.288403 5.684963-1.144202zm95.851117-2.200387c-.220348.088015-.969529.264046-1.630571.396069-1.498362.352062-4.098462 2.55245-5.420546 4.664822-3.173002 5.060891-2.071265 14.610573 2.071266 17.735123 4.406947 3.388597 9.25459 3.300581 12.736079-.176031 1.410223-1.408248 3.481489-4.928868 3.481489-5.941046 0-.660116-1.233946.132023-3.084864 2.024356-2.027196 2.068365-2.291613 2.200388-4.406948 2.200388-2.688238 0-4.1866-.704124-6.257866-2.992527-1.806848-2.024357-3.481488-7.43731-2.46789-8.053418.308486-.220039 4.098461-.39607 8.3732-.39607 4.27474 0 7.888437-.176031 8.020646-.352062.132208-.220039-.088139-1.408248-.528834-2.684473-.88139-2.816496-3.437419-5.544976-5.729032-6.205093-1.542429-.396069-4.23067-.528093-5.156129-.220038zm3.481488 2.684472c1.850919 1.408248 2.6001 3.828675 1.498363 4.928868-.749181.748132-8.329132.704124-9.34273-.044007-.705111-.528093-.749181-.704124-.132208-2.112372.969528-2.376419 3.261141-4.004706 5.244268-3.784667.881389.132023 2.115335.572101 2.732307 1.012178zm45.567842-1.716302c-1.674641.616109-2.996725 1.276225-2.996725 1.496264 0 .220038.484764.660116 1.101737.924162 1.71871.79214 2.071265 2.816496 1.894988 11.089953-.132209 7.129256-.176278 7.393302-1.145807 8.22945-.572903.440077-.925459 1.012178-.749181 1.276224.352556.616109 7.57995.572101 7.932506-.044007.176278-.264047-.088139-.748132-.616973-1.100194-.881389-.660116-.925459-.968171-.925459-11.177969 0-8.977581-.088139-10.605867-.705111-11.177968-.352556-.39607-.705112-.704124-.749181-.660116-.04407 0-1.410224.528093-3.040794 1.144201zm14.851414-.39607c-.969529.440078-2.291613.968171-2.952655 1.144202-1.454293.352062-1.586501.96817-.352556 1.36424 1.939057.616109 2.247543 2.332411 2.115335 10.781899-.132208 6.733186-.220347 7.965403-.88139 8.669527-1.498362 1.628286-1.013598 1.892333 3.173003 1.892333 3.173002 0 3.966253-.132023 3.966253-.660116 0-.352062-.396625-.836148-.88139-1.100194-.83732-.440078-.881389-.924163-.881389-8.537504 0-9.021588-.04407-8.889565 3.613697-10.517852 2.379752-1.100194 3.613697-.96817 4.935782.572101 1.410223 1.716302 1.718709 3.828674 1.498362 11.353999-.132208 5.677-.220347 6.249101-1.145806 7.217271-.528834.616109-.837321 1.232217-.661043 1.364241.132209.176031 1.939057.308054 3.922184.308054 3.922184 0 4.891712-.484085 3.34928-1.716302-.83732-.660117-.925459-1.276225-1.101737-9.065597-.132208-6.337116-.352555-8.713534-.881389-9.901744-2.159405-4.840852-7.227395-5.236922-11.634343-.880155-1.410223 1.408248-1.410223 1.408248-1.63057.352062-.132209-.5721-.308487-1.496263-.352556-2.112372-.176278-1.36424-1.013598-1.540271-3.217072-.528093zm31.685955-.396069c-3.437419.5721-6.390074 3.696651-7.007047 7.393302-.352556 2.112372.661042 4.88486 2.55603 6.909216 1.322084 1.452256 1.498362 2.376419.528834 2.728481-.396626.176031-1.189876 1.144201-1.806849 2.200387l-1.145807 1.936341.92546 1.496264c.528833.792139.925459 1.672294.925459 1.892333s-.705112 1.188209-1.542432 2.15638c-.83732.924163-1.762779 2.376418-2.027196 3.168558-.661042 1.980349.176278 3.168558 3.437419 4.708829 2.247544 1.100194 3.040794 1.232217 6.74263 1.232217 6.346005-.044008 10.532606-2.15638 12.69201-6.425131 1.322085-2.640465 1.013598-4.664822-1.057667-6.425132-1.67464-1.496263-2.423822-1.672294-9.386799-2.024356-5.596824-.308055-6.654491-.660117-6.654491-2.15638 0-1.76031 1.366153-2.55245 3.789975-2.244395 3.173002.440077 6.654491-.704124 8.637618-2.772489 1.983126-2.024356 2.556029-4.048713 2.071265-7.129255-.440695-2.772488-.308486-3.080543 1.322084-3.080543 1.498363 0 2.644169-1.100193 1.894988-1.848325-.264417-.264047-1.498362-.440078-2.776377-.39607-1.278015 0-3.569628-.352062-5.156129-.836147-2.908586-.924163-3.878114-.968171-6.962978-.484085zm3.481489 1.012178c2.291613 1.188209 3.834045 4.400775 3.834045 7.877387 0 3.12455-.83732 4.840853-2.996725 6.205093-1.454293.880155-1.498362.880155-2.996724.088015-2.6001-1.408248-3.43742-3.300581-3.43742-7.833379l-.044069-3.872682 1.718709-1.496264c1.894988-1.628286 2.467891-1.76031 3.922184-.96817zm3.128933 24.072239c4.318809.308054 4.891712.440078 5.640893 1.36424 3.128933 3.872682-5.156129 7.83338-12.427593 5.985054-3.745905-.96817-5.06799-2.200387-4.671365-4.400775.176278-.880155.749182-1.980348 1.233946-2.464434 1.057667-.96817 2.291613-1.056186 10.224119-.484085zm35.123375-25.172433c-5.288338 1.012178-9.827494 9.153612-8.417271 15.138666.705112 3.080543 1.850918 5.236922 3.569628 6.953225 1.983126 2.024356 3.745906 2.772488 6.874839 3.036534 2.46789.176031 3.084863.044008 5.552754-1.144201 3.040794-1.540271 4.539156-3.344589 5.993449-7.173263 1.894988-4.928868.83732-10.077775-2.820447-13.818434-2.820446-2.904511-6.169727-3.828674-10.752952-2.992527zm4.891712 2.244395c3.128933 2.068365 4.318809 5.324938 4.318809 11.75007 0 4.004705-.132209 5.060891-.88139 6.2491-2.996724 4.928868-8.549479 3.344589-10.929231-3.080542-1.101737-2.904512-1.322084-8.493496-.440694-11.398008 1.101737-3.652643 5.06799-5.412953 7.932506-3.52062zm16.87861-1.408248c-1.67464.572101-3.084863 1.056186-3.173002 1.056186s-.132209.220039-.132209.440078c0 .264046.484764.660116 1.101737.880155 1.762779.660116 2.027196 2.200387 1.894988 10.605868-.132209 6.689178-.264417 7.921395-.88139 8.625519-1.498362 1.628286-1.013598 1.892333 3.173003 1.892333 4.142531 0 4.583225-.264047 3.084863-1.76031-.79325-.79214-.881389-1.452256-.881389-8.493496 0-8.625519.088139-8.977581 3.305211-10.429837 2.51196-1.144201 3.437419-1.100193 4.935781.176031l1.233946 1.056186.132208 8.537504c.132208 8.229449.132208 8.493496-.793251 9.241627-.528833.440078-.83732.968171-.661042 1.232217.308487.484086 7.359603.616109 7.844367.132024.176278-.132024-.132208-.748132-.661042-1.364241-.969528-.96817-1.013598-1.452255-1.233945-9.681705-.176278-6.117077-.396625-8.977581-.83732-9.76972-2.291613-4.180736-6.434144-4.708829-10.312258-1.276225-1.894988 1.672295-2.027196 1.716302-2.467891.880155-.264417-.484085-.484764-1.232217-.484764-1.716302 0-1.36424-.925459-1.408248-4.186601-.264047z"></path></svg> 